# xmcd
#
# Track frame offsets:
#	150
#	10856
#	22492
#	35968
#	47065
#	62181
#	70544
#	81961
#	98028
#	115172
#	126989
#	138462
#	148675
#	160896
#	178688
#	191728
#	202137
#	223012
#	236237
#	245404
#	261255
#	274107
#
# Disc length: 3772
#
# Revision: 2
# Processed by: cddbd v1.5.1PL0 Copyright (c) Steve Scherf et al.
# Submitted via: Kscd 1.3.3
# Normalized: r1:DSETVAR1
#
DISCID=5d0eba16
DTITLE=Various Artist - Gospel music - 100 and plus [CD5 of 5)
DYEAR=1900
DGENRE=
TTITLE0=Mahalia Jackson - Amazing grace
TTITLE1=Dolly Parton - Letter to Heaven
TTITLE2=Tennessee Ernie Ford - This old heart is gonna rise again
TTITLE3=Johnny Cash - Bel-Shazah
TTITLE4=Kenny Rogers - All God's lonely children
TTITLE5=Anne Murray - Paths of Glory
TTITLE6=Southern Singers - Mine eyes have seen the coming of the Lord
TTITLE7=J.D. Summer and The Stamps - Precious memories
TTITLE8=Blackwood Brothers - Jesus now
TTITLE9=Jeanny C. Riley - Reborn
TTITLE10=Anita Bryant - It's no secret
TTITLE11=Ricky Scaggs - Wings of Angels
TTITLE12=Charlie Rich - Big Man
TTITLE13=The Carter Family - Will the circle be unbroken
TTITLE14=Patsy Cline - Life's railway to Heaven
TTITLE15=Ferlin Husky - Wings of a Dove
TTITLE16=Jimmy Dean - This old house
TTITLE17=Golden Circle Choir - Down by the riverside
TTITLE18=Pat Boone - A wonderful time up there
TTITLE19=Johnny Cash - This train is bound for Glory
TTITLE20=Carl Perkins - Hallelujah Special
TTITLE21=Web Pierce - He's got the whole world in His hands
EXTD=
EXTT0=
EXTT1=
EXTT2=
EXTT3=
EXTT4=
EXTT5=
EXTT6=
EXTT7=
EXTT8=
EXTT9=
EXTT10=
EXTT11=
EXTT12=
EXTT13=
EXTT14=
EXTT15=
EXTT16=
EXTT17=
EXTT18=
EXTT19=
EXTT20=
EXTT21=
PLAYORDER=
